<svg xmlns="http://www.w3.org/2000/svg" viewBox="0 0 1189.5 675.58">
  <defs>
    <style>
      .cls-1 {
        fill: #13d813;
      }

      .cls-2 {
        fill: #ed1b9d;
      }

      .cls-3 {
        fill: #56e800;
      }

      .cls-4 {
        fill: #ff00c3;
        stroke: #56e800;
        stroke-width: 13px;
      }

      .cls-5 {
        fill: #fff200;
      }

      .cls-6 {
        fill: #f20fdd;
        stroke: #1cef11;
        stroke-miterlimit: 10;
        stroke-width: 8px;
      }

      .cls-7 {
        fill: #efd911;
      }

      .cls-8 {
        fill: #f3ff00;
      }

      .cls-9 {
        fill: red;
      }

      .cls-10 {
        fill: #edff00;
      }

      .cls-11 {
        fill: #2cff00;
        stroke: #ff00cf;
        stroke-width: 10px;
      }

      .cls-12 {
        fill: #fff;
      }
    </style>
  </defs>
  <g id="Capa_6" data-name="Capa 6">
    <g>
      <path class="cls-1" d="M653,824c41.35-54.59,134-126,262-130,87.27-2.73,153.24,104.22,208,132,54,27.39,74-4,142-30,30.7-11.74,66-46,146,20,54,56,68,102,86,126,48,72,92.4,86.47,86,130-20,136-71.11,118-118,134-76,26-110.61,58.9-268,52-228-10-286.57-48.9-368-14-42,18-109.48,18.34-152-24C601,1144.36,590.48,906.54,653,824Z" transform="translate(-462.5 -593)"/>
      <path class="cls-2" d="M652.2,823.4h0A299.3,299.3,0,0,1,689,783.56c6.69-6.1,13.65-11.9,20.78-17.48s14.48-10.89,22-15.91a373.94,373.94,0,0,1,47.27-26.88,369,369,0,0,1,50.84-19.74,355.64,355.64,0,0,1,53.41-11.89q13.57-1.95,27.3-2.85l3.43-.21.43,0,.53,0,.85,0,1.69-.06c.57,0,1.11-.05,1.71-.05h1.83c1.22,0,2.44,0,3.62.07a108.43,108.43,0,0,1,14.17,1.39,131.38,131.38,0,0,1,27.32,7.56,179.26,179.26,0,0,1,25.25,12.33c16.12,9.41,30.81,20.72,44.8,32.51s27.22,24.27,40.41,36.43c6.61,6.07,13.24,12,19.94,17.75a212.7,212.7,0,0,0,20.6,15.75,104.27,104.27,0,0,0,10.74,6.22l1.51.75,1.38.64c.9.44,1.88.86,2.83,1.29,1.91.81,3.83,1.61,5.76,2.29a64.42,64.42,0,0,0,23.21,4.26c7.73-.12,15.51-2,23.4-5s15.82-6.81,23.9-10.71c16.12-7.94,32.86-15.89,50.17-22.17l3.16-1.16,1.45-.56,1.45-.6c2-.81,4-1.69,6-2.61,4-1.83,8.2-3.77,12.5-5.6a110.3,110.3,0,0,1,27.55-8.21,84.83,84.83,0,0,1,29.1.88,113.59,113.59,0,0,1,26.9,9.32c16.92,8.23,31.84,19.26,45.8,31.07l.25.22.14.15a396.57,396.57,0,0,1,34.68,42.6,446.08,446.08,0,0,1,28.53,46.76c4.32,8,8.47,16.06,12.89,23.86,2.21,3.9,4.49,7.72,7,11.36.61.92,1.27,1.78,1.9,2.68l.32.47.24.35.47.71.94,1.41c1.26,1.88,2.51,3.71,3.81,5.55q7.74,11,16.25,21.52c5.67,7,11.61,13.74,17.71,20.38s12.37,13.14,18.61,19.77c3.12,3.31,6.22,6.67,9.23,10.14a138.4,138.4,0,0,1,8.68,10.88,71.35,71.35,0,0,1,7.12,12.32,51.35,51.35,0,0,1,4,14,54.91,54.91,0,0,1,0,14.49l-1,6.78-1,6.8c-2.91,18-6.79,36-13.1,53.54a138,138,0,0,1-12.08,25.43,79.88,79.88,0,0,1-44.64,35.47c-9.07,3.09-18.19,5-26.92,7-4.37,1-8.66,2-12.82,3.26-2.08.59-4.12,1.24-6.14,1.93l-1.5.53-1.53.56-3.19,1.18c-2.15.78-4.2,1.58-6.27,2.38s-4.15,1.62-6.23,2.45q-6.24,2.48-12.47,5.08c-16.61,6.89-33.28,14.34-50.65,20.66-8.68,3.16-17.51,6-26.45,8.55s-18,4.68-27.1,6.45-18.27,3.23-27.45,4.39-18.37,2.06-27.56,2.64c-18.38,1.3-36.75,1.7-55.07,1.52l-13.73-.22-13.73-.41c-9-.36-18.18-.74-27.26-1.22-18.19-.93-36.37-2.08-54.53-3.55s-36.3-3.18-54.4-5.16-36.17-4.26-54.17-6.64-35.93-4.95-53.74-7.11-35.5-4-52.83-3.9a168,168,0,0,0-50.49,7.32c-4.06,1.26-8.09,2.69-12.08,4.26l-6.23,2.55-1.78.69-1.72.64c-1.15.42-2.3.83-3.45,1.21a157.59,157.59,0,0,1-28.21,6.62,165.12,165.12,0,0,1-57.41-1.85,140.56,140.56,0,0,1-27.6-8.89,128.09,128.09,0,0,1-25.15-14.71,120.69,120.69,0,0,1-11.09-9.49c-.89-.84-1.73-1.72-2.59-2.57l-.44-.46-.29-.31-.58-.63-1.15-1.24-1.15-1.25c-.39-.42-.81-.94-1.21-1.4l-2.42-2.86a161.7,161.7,0,0,1-15.83-23.76,228.68,228.68,0,0,1-11.91-25.4c-3.45-8.63-6.45-17.4-9.06-26.25a412.51,412.51,0,0,1-11.84-53.8,515.83,515.83,0,0,1-5.48-54.53c-1.74-36.44-.3-73,5.4-109,1.42-9,3.13-17.93,5.21-26.79s4.45-17.65,7.33-26.29a223.35,223.35,0,0,1,10.16-25.35A138.26,138.26,0,0,1,652.2,823.4Zm1.6,1.21a134.83,134.83,0,0,0-13.73,23.15,198.6,198.6,0,0,0-9.79,25.17,313.48,313.48,0,0,0-11.45,52.83c-4.74,35.79-4.85,72.1-1.51,107.93a504.38,504.38,0,0,0,7.91,53.31,402.45,402.45,0,0,0,14.06,51.7c5.89,16.76,13,33.09,22,48a153.29,153.29,0,0,0,15.16,20.82l2.06,2.25c.35.38.65.73,1.05,1.14l1.2,1.2,1.2,1.2.6.6.3.31c.13.13-.06-.07.15.14.78.71,1.53,1.44,2.32,2.13a104.08,104.08,0,0,0,9.85,7.8c13.71,9.67,29.71,15.91,46.33,19.06a150,150,0,0,0,50.73.58,140.54,140.54,0,0,0,24.57-6.09c1-.34,2-.71,2.94-1.07l1.46-.57,1.39-.56,6.31-2.66q6.63-2.71,13.48-5a172,172,0,0,1,28.07-6.64,205,205,0,0,1,28.52-2.16c9.46-.11,18.81.32,28.06,1s18.39,1.65,27.48,2.74c18.17,2.18,36.11,4.7,54,7.1,35.82,4.89,71.58,9.15,107.48,12.36,18,1.59,35.92,3,53.92,4.12,9,.58,17.94,1.06,27,1.53l13.42.6,13.44.42c17.91.44,35.8.32,53.59-.67,8.9-.44,17.75-1.24,26.58-2.15s17.58-2.26,26.28-3.79a353.12,353.12,0,0,0,51.3-13.31c16.83-5.66,33.5-12.49,50.54-19l6.4-2.43c2.14-.81,4.29-1.61,6.45-2.38s4.31-1.55,6.5-2.31,4.38-1.52,6.51-2.22l3.23-1.07,1.68-.55,1.72-.54c2.3-.69,4.6-1.33,6.9-1.89,4.59-1.15,9.15-2.08,13.64-2.94,9-1.74,17.7-3.24,25.9-5.69a71.6,71.6,0,0,0,22.54-10.84,72.64,72.64,0,0,0,17.21-18.39,128.44,128.44,0,0,0,12-23.18c6.6-16.39,10.86-33.89,14.25-51.51l1.2-6.61,1.09-6.65a48,48,0,0,0,.3-12.6,43.44,43.44,0,0,0-3.22-12.14,65.18,65.18,0,0,0-6.3-11.26c-5-7.22-11-13.89-17.08-20.52s-12.37-13.21-18.51-19.94A439.93,439.93,0,0,1,1500.14,952c-1.32-1.85-2.63-3.76-3.92-5.62l-1.84-2.68c-.68-1-1.4-1.89-2.05-2.85-2.67-3.83-5.07-7.77-7.37-11.73-4.58-7.93-8.82-15.93-13.26-23.78s-9-15.65-13.77-23.22-9.9-15-15.23-22.18a369.05,369.05,0,0,0-35.11-40.64l.39.37c-13.88-11.07-28.67-21.07-44.51-28.1a102.65,102.65,0,0,0-24.38-7.53,72.22,72.22,0,0,0-24.76.1,96.39,96.39,0,0,0-23.9,8.1c-3.94,1.83-7.89,3.86-12,5.88-2.06,1-4.16,2-6.33,3l-1.66.73-1.68.72-3.15,1.29q-12.24,5.07-24.17,11c-8,3.92-15.85,8.07-23.89,12.25a266.16,266.16,0,0,1-25.23,12,102.7,102.7,0,0,1-14.07,4.49,75.56,75.56,0,0,1-15.16,2,73.72,73.72,0,0,1-15.31-1.19c-2.5-.45-5-1-7.36-1.71s-4.78-1.43-7.09-2.28-4.58-1.75-6.81-2.71c-1.11-.5-2.2-1-3.33-1.51l-1.68-.79-1.52-.75a110.66,110.66,0,0,1-12.65-7.37,229.64,229.64,0,0,1-22.25-17.26c-7-6-13.64-12.29-20.24-18.53-13.17-12.46-25.91-25.08-39.18-36.93S998.74,731.4,984,722s-30.51-16.85-47.29-20.33a98.43,98.43,0,0,0-12.67-1.85c-1.08-.11-2.11-.16-3.14-.21l-1.56-.09c-.52,0-1.11,0-1.67,0l-1.69,0h-1.58l-3.33,0q-13.33.24-26.64,1.52a347.08,347.08,0,0,0-52.66,9.18,342.46,342.46,0,0,0-98.25,42.61,333.83,333.83,0,0,0-43,32.43q-10.08,9-19.32,18.8A260.7,260.7,0,0,0,653.8,824.61Z" transform="translate(-462.5 -593)"/>
    </g>
  </g>
  <g id="Capa_7" data-name="Capa 7">
    <path class="cls-3" d="M666,745c-9-34-26-66,3-119,8-18-27-28-32-10,8,32,5,94,2,134C644.49,754.79,662.83,751.56,666,745Z" transform="translate(-462.5 -593)"/>
    <path class="cls-3" d="M635.84,871.66c-33.91-12.59-70.69-17.44-99-72.41-10.67-17.15-39.1,5.71-26.72,20.4,31.64,12.24,82.4,51.15,114.54,77.13C631.84,895.08,639.58,878.12,635.84,871.66Z" transform="translate(-462.5 -593)"/>
    <circle class="cls-4" cx="192" cy="196.5" r="39.5"/>
    <circle class="cls-5" cx="199" cy="189.5" r="15.5"/>
    <circle class="cls-4" cx="46" cy="194.5" r="39.5"/>
    <circle class="cls-5" cx="34" cy="200.5" r="15.5"/>
    <circle class="cls-6" cx="188" cy="25.5" r="21.5"/>
    <circle class="cls-7" cx="184" cy="22.5" r="6.5"/>
    <path class="cls-2" d="M1561,1228.37c-2-2.45-3.48-5.74-2.73-8.81-8.28-8.4-31.35-10.26-37.67-28.4-3.72,5.93-4.47,9-11.68,9.19C1513.68,1212,1559.93,1236.54,1561,1228.37Z" transform="translate(-462.5 -593)"/>
    <path class="cls-2" d="M1637.9,1181.42c-4.16-2-8.09-5-8.86-8.24-16.16-6.58-48.6-3.2-67.78-20-1.6,6.81-.83,10.07-10.51,11.91C1564,1175.65,1641.22,1189.9,1637.9,1181.42Z" transform="translate(-462.5 -593)"/>
    <circle class="cls-2" cx="1107.5" cy="630" r="18"/>
    <circle class="cls-2" cx="1141.5" cy="541" r="10"/>
    <circle class="cls-2" cx="1175.5" cy="583" r="14"/>
    <path class="cls-2" d="M1571,1134l3-7s10,6,19,6c10-1,3,3,6,5C1597,1140,1579,1140,1571,1134Z" transform="translate(-462.5 -593)"/>
    <circle class="cls-8" cx="1109.5" cy="629" r="13.5"/>
    <circle class="cls-8" cx="1176" cy="583.5" r="10.5"/>
    <circle class="cls-8" cx="1141.5" cy="541" r="4.5"/>
    <circle class="cls-9" cx="1179.5" cy="580" r="3.5"/>
    <circle class="cls-9" cx="1110.5" cy="633" r="6.5"/>
    <circle class="cls-9" cx="1139.5" cy="540" r="2.5"/>
  </g>
  <g id="Capa_3" data-name="Capa 3">
    <g id="Capa_10" data-name="Capa 10">
      <g>
        <path class="cls-10" d="M1432,1087.21c-7-8-52,21.79-80,14-19-4.21-45-16.21-39-37,0-10.21,57-3,95-27,26.47-16.71,46-143-91-86-49,22-69,83-63,127,3.09,22.6,21.1,71.86,42,81,31.12,13.61,105-12,131-36C1437,1114,1439,1099.21,1432,1087.21ZM1322,980c58-30,62,4,60,21-2.23,19-46,15-68,9C1305.8,1007.76,1314.45,983.91,1322,980Z" transform="translate(-462.5 -593)"/>
        <g>
          <path class="cls-2" d="M1431.63,1087.51a4.93,4.93,0,0,0-3.71-1.17,21.32,21.32,0,0,0-4.32.56,73.93,73.93,0,0,0-8.52,2.49c-5.63,1.93-11.18,4.12-16.8,6.15s-11.28,4-17.08,5.62a83.31,83.31,0,0,1-17.94,3.13,43.74,43.74,0,0,1-9.33-.48c-.78-.13-1.56-.28-2.34-.47l-2.14-.41q-2.25-.47-4.47-1a83.89,83.89,0,0,1-17.36-6.36,52.15,52.15,0,0,1-8.08-5.07,34.14,34.14,0,0,1-7-7.1,23.81,23.81,0,0,1-4.11-9.72,24.73,24.73,0,0,1,.58-10.61l-.17,1.17a6.8,6.8,0,0,1,1-3.53,8.18,8.18,0,0,1,2-2.21,14,14,0,0,1,3.58-2,40.63,40.63,0,0,1,6.14-1.71c3.92-.81,7.7-1.28,11.47-1.79,7.52-1,14.92-1.8,22.26-2.9a212,212,0,0,0,21.72-4.22,122.59,122.59,0,0,0,20.72-7c1.66-.74,3.3-1.52,4.91-2.36.8-.42,1.6-.85,2.39-1.29l1.18-.68.14-.08c-.07,0,.07,0,.09,0l.3-.19c.23-.14.33-.22.48-.32a20.15,20.15,0,0,0,3.6-3.27,35.75,35.75,0,0,0,3.17-4.15,68.23,68.23,0,0,0,8.51-19.94,88,88,0,0,0,2.12-10.82,79.42,79.42,0,0,0,.59-11,67.93,67.93,0,0,0-1.07-11,52.83,52.83,0,0,0-3.14-10.49,41.62,41.62,0,0,0-5.49-9.39,36.56,36.56,0,0,0-7.86-7.45,45,45,0,0,0-20.28-7.54,79.9,79.9,0,0,0-22,.42,138.62,138.62,0,0,0-21.66,5.06,222.07,222.07,0,0,0-20.93,7.79l-2.57,1.11-1.28.56-.32.14-.16.07c-.16.07,0,0,0,0l-.63.31c-1.74.86-3.23,1.64-4.83,2.56a85.9,85.9,0,0,0-9.11,6,105.4,105.4,0,0,0-28.31,32.63,133.68,133.68,0,0,0-14.87,40.86,137.23,137.23,0,0,0-2.37,21.64,112.06,112.06,0,0,0,1.39,21.49,160.3,160.3,0,0,0,5.48,21.08,196.93,196.93,0,0,0,8,20.48,131.75,131.75,0,0,0,10.39,19,66.18,66.18,0,0,0,6.45,8.21,28.93,28.93,0,0,0,7.44,5.93c.32.14.68.34.94.44l1.28.53,1.06.39,1.16.38a46,46,0,0,0,4.92,1.24,66.44,66.44,0,0,0,10.47,1.07,131.92,131.92,0,0,0,21.73-1.38,228.63,228.63,0,0,0,43.11-10.79c14-5,27.82-11.2,39.89-20,1.49-1.12,3-2.27,4.33-3.5.32-.27.69-.63,1-.94l1-1a27.14,27.14,0,0,0,1.77-2.09,26.72,26.72,0,0,0,4.79-9.81,28.21,28.21,0,0,0,.55-11A30.23,30.23,0,0,0,1431.63,1087.51Zm.84-.55a30.56,30.56,0,0,1,3.55,22.21,29.27,29.27,0,0,1-4.69,10.53,28.19,28.19,0,0,1-1.79,2.29l-1,1.09c-.35.34-.64.66-1,1-1.39,1.33-2.84,2.57-4.32,3.78a135.46,135.46,0,0,1-18.93,12.75,214.87,214.87,0,0,1-20.39,10.28c-7,3.09-14.09,5.87-21.36,8.26a188.43,188.43,0,0,1-22.26,5.94,121.72,121.72,0,0,1-23.24,2.59,77.89,77.89,0,0,1-12-.84,55.17,55.17,0,0,1-6.09-1.31c-.51-.15-1-.29-1.53-.46l-1.61-.56-1.34-.53c-.62-.24-1.08-.48-1.63-.72a39,39,0,0,1-10.36-7.81,72.09,72.09,0,0,1-7.68-9.42,135.35,135.35,0,0,1-11.48-20.49,208.77,208.77,0,0,1-8.39-21.63,151.91,151.91,0,0,1-5.71-22.67,122.07,122.07,0,0,1-1.16-23.57,143.72,143.72,0,0,1,19.83-66.57,107.42,107.42,0,0,1,31.75-34,93,93,0,0,1,10.11-5.92c1.7-.88,3.61-1.76,5.28-2.48l.65-.28.28-.12.17-.06.33-.13,1.34-.51,2.67-1c7.15-2.64,14.41-5,21.8-6.93a154.27,154.27,0,0,1,22.52-4.29,89.17,89.17,0,0,1,23,.22,59.42,59.42,0,0,1,11.25,2.9,44.25,44.25,0,0,1,10.33,5.46,43.27,43.27,0,0,1,14.41,18.11,55.65,55.65,0,0,1,3.51,11.07,69.4,69.4,0,0,1,1.5,11.48,82.47,82.47,0,0,1-.24,11.55,90.26,90.26,0,0,1-1.67,11.45,86.75,86.75,0,0,1-3.15,11.2,64.09,64.09,0,0,1-4.88,10.73,43.23,43.23,0,0,1-3.4,5,26.61,26.61,0,0,1-4.52,4.55l-.67.5-.65.45-1.23.8c-.82.54-1.65,1-2.49,1.56-1.67,1-3.38,2-5.11,2.86a122.52,122.52,0,0,1-21.65,8.57,196.22,196.22,0,0,1-22.51,5c-7.55,1.26-15.12,2.13-22.55,3-3.71.43-7.41.89-10.9,1.49a33.19,33.19,0,0,0-4.78,1.16,7.68,7.68,0,0,0-1.4.65c-.1,0-.06,0,0-.16a1.68,1.68,0,0,0,.19-.84l-.16,1.18a16.59,16.59,0,0,0-.76,7.08,16.28,16.28,0,0,0,2.49,6.74,27.08,27.08,0,0,0,5.14,6,46,46,0,0,0,6.76,4.9,78.26,78.26,0,0,0,15.68,7.17c1.37.47,2.76.9,4.16,1.31l2.22.61c.66.21,1.33.39,2,.56a40.21,40.21,0,0,0,8.46,1,76.38,76.38,0,0,0,17.4-2,173.79,173.79,0,0,0,17.15-4.74c5.66-1.85,11.27-3.86,17-5.72,2.84-.91,5.71-1.79,8.66-2.43a22.82,22.82,0,0,1,4.54-.55,8.26,8.26,0,0,1,2.35.28,4.32,4.32,0,0,1,2.13,1.26l0,.05Z" transform="translate(-462.5 -593)"/>
          <path class="cls-2" d="M1321.77,979.56h0l2-1c1.28-.65,3.08-1.69,5.45-3l8.5-4.94a60.27,60.27,0,0,1,11.91-5.42,33.57,33.57,0,0,1,3.65-.94,29.12,29.12,0,0,1,4-.56,28,28,0,0,1,8.66.53,20.74,20.74,0,0,1,14.75,11.81,34.78,34.78,0,0,1,2.57,9.08,66.47,66.47,0,0,1,.71,9.23c0,1.55,0,3.1-.07,4.65,0,.39,0,.78,0,1.17l0,.58,0,.3v.07c0,.08,0-.08,0,.2l0,.14-.14,1.13a5.2,5.2,0,0,1-.1.59l-.19.68a15.81,15.81,0,0,1-6.19,8.6A31.61,31.61,0,0,1,1368,1017a51.71,51.71,0,0,1-9.47,2.09,109.77,109.77,0,0,1-18.37.6,99.41,99.41,0,0,1-16.88-2.23c-2.64-.6-5.21-1.23-7.66-2-.61-.19-1.23-.38-1.82-.59l-.89-.32-.12,0-.48-.16,0,0-.2-.1-.41-.2a10.19,10.19,0,0,1-1.11-.63,5.65,5.65,0,0,1-.9-.71,7.87,7.87,0,0,1-1.21-1.42c-.16-.25-.32-.5-.46-.75s-.23-.48-.33-.72a6.59,6.59,0,0,1-.47-1.4,12.73,12.73,0,0,1-.22-4.65,23.69,23.69,0,0,1,.79-3.69,40.63,40.63,0,0,1,2.51-6,67.32,67.32,0,0,1,5.36-8.5,28.32,28.32,0,0,1,4.27-4.75,7,7,0,0,1,.78-.61,4.47,4.47,0,0,1,.61-.4Zm.46.88-.44.28a3.17,3.17,0,0,0-.52.38,6.25,6.25,0,0,0-.69.58,17.23,17.23,0,0,0-3.43,4.89,30,30,0,0,0-2.67,8.95,30.4,30.4,0,0,0-.33,5.52,16.54,16.54,0,0,0,.29,2.7,5.63,5.63,0,0,0,.73,2c.07.1.13.18.19.19l.07.05,0,0s0-.1,0-.14a1,1,0,0,0-.19-.19.89.89,0,0,0-.34-.16l.42.11.22.07h0c-.17-.06.47.15-.38-.13l.11,0,.86.14,1.73.31c2.33.42,4.76.84,7.26,1.21,5,.76,10.31,1.53,15.78,2.17a120.23,120.23,0,0,0,16.85,1,81.73,81.73,0,0,0,8.45-.56,28.09,28.09,0,0,0,7.93-1.93,13.36,13.36,0,0,0,1.72-.91,10.93,10.93,0,0,0,1.55-1.12,5.88,5.88,0,0,0,.66-.66,4.57,4.57,0,0,0,.61-.72l.52-.78c.16-.26.25-.51.39-.77l.19-.39a4.15,4.15,0,0,0,.15-.52l.28-1.11,0-.13c0,.22,0,0,0,.05v-.06l0-.28.08-.54c.06-.37.11-.73.15-1.09a35.89,35.89,0,0,0,.27-4.38,28.76,28.76,0,0,0-1.14-8.48,20.32,20.32,0,0,0-3.67-7.09,15.12,15.12,0,0,0-5.55-4.25,21,21,0,0,0-6.25-1.69,63.42,63.42,0,0,0-13.07.17c-1.07.05-2.12.22-3.17.32l-1.56.16-1.52.21-3,.41-2.8.51a57.9,57.9,0,0,0-9.27,2.46,52.33,52.33,0,0,0-5.71,2.38Z" transform="translate(-462.5 -593)"/>
        </g>
      </g>
    </g>
    <g>
      <path class="cls-10" d="M1193,963.66c9.45-26.21,83.53-58.89,104-40,29.89,27.57-45.3,115.35-46,156-.32,18.79,42.89,48.51,36,66-12.25,31.13-115.86,51.3-132,22-13.38-24.3,43.88-71.48,52-98C1214.81,1044.1,1183.92,988.81,1193,963.66Z" transform="translate(-462.5 -593)"/>
      <path class="cls-2" d="M1192.52,963.47l.19-.49c.13-.33.31-.82.63-1.48a31.4,31.4,0,0,1,3.24-5.35c3.23-4.41,8.93-10.13,17.19-16,2-1.49,4.27-3,6.64-4.49s4.87-3,7.54-4.54,5.51-3,8.49-4.42,6.11-2.89,9.41-4.24a120.41,120.41,0,0,1,21.84-6.76,67.58,67.58,0,0,1,12.67-1.34,34.6,34.6,0,0,1,14,2.57A23.64,23.64,0,0,1,1305.77,928a28.5,28.5,0,0,1,2.53,7.68,40.13,40.13,0,0,1,.57,7.85,66.15,66.15,0,0,1-2.27,15.1,132.23,132.23,0,0,1-4.65,14.46c-3.64,9.5-8,18.82-12.72,28.17s-9.69,18.71-14.64,28.22a321.56,321.56,0,0,0-13.74,29.23,86.83,86.83,0,0,0-4.61,15.15c-.24,1.27-.42,2.52-.54,3.77-.09.62-.09,1.23-.13,1.85l0,.23c0,.13,0-.42,0-.06l0,.53,0,1c.11.43.14.74.24,1.23s.26,1.06.46,1.61.38,1.1.63,1.66.49,1.13.78,1.69a56.22,56.22,0,0,0,4.06,6.78c1.53,2.24,3.19,4.46,4.89,6.68,3.4,4.46,7,8.88,10.57,13.48a108.13,108.13,0,0,1,9.87,14.82,31.74,31.74,0,0,1,3.24,9,17.11,17.11,0,0,1,.11,5.21c-.08.45-.13.89-.23,1.33l-.42,1.31-.22.65c-.12.31-.1.22-.15.36l-.12.24-.46,1a27.56,27.56,0,0,1-2.66,4.12,35.4,35.4,0,0,1-3.09,3.47,51,51,0,0,1-7,5.68,88.59,88.59,0,0,1-15.51,8.32,143.55,143.55,0,0,1-16.33,5.9c-5.51,1.66-11.07,3.08-16.67,4.2a183.94,183.94,0,0,1-33.74,3.8,102.08,102.08,0,0,1-16.84-1.15,47.35,47.35,0,0,1-16.27-5.38,23.71,23.71,0,0,1-6.88-5.88,19,19,0,0,1-2.41-4,19.4,19.4,0,0,1-.87-2.3,18.54,18.54,0,0,1-.54-2.29,21.16,21.16,0,0,1-.34-4.6,29.17,29.17,0,0,1,.43-4.43,43.87,43.87,0,0,1,2.32-8.18,91.78,91.78,0,0,1,7.25-14.35c2.72-4.45,5.61-8.66,8.56-12.71,5.89-8.1,11.93-15.61,17.61-22.88,2.82-3.65,5.58-7.21,8.12-10.77a101.62,101.62,0,0,0,6.84-10.63,39,39,0,0,0,2.43-5.26l.12-.32c-.08.3,0,0,0,0l.05-.19.22-.76c.14-.49.32-1,.42-1.48l.24-1.25a9.5,9.5,0,0,0,.22-1.3,53.12,53.12,0,0,0,.13-11.35c-.27-3.78-.81-7.51-1.43-11.13s-1.33-7.14-2.07-10.55c-1.46-6.83-3-13.21-4.43-19.13-.7-2.95-1.35-5.8-1.94-8.53s-1.16-5.33-1.65-7.81c-1-5-1.64-9.44-2-13.36a64.48,64.48,0,0,1-.21-10c0-.68.14-1.32.2-1.92a15.22,15.22,0,0,1,.24-1.67c.22-1,.33-1.9.56-2.58l.62-2.06Zm.93.36-.59,2c-.21.65-.31,1.5-.52,2.49a14.44,14.44,0,0,0-.22,1.62c-.06.58-.16,1.2-.19,1.87a56.51,56.51,0,0,0,.37,9.81,109.74,109.74,0,0,0,2.47,13.13q.9,3.64,2,7.65c.77,2.66,1.62,5.44,2.52,8.33l6,18.76c1,3.37,2.08,6.87,3,10.53s1.87,7.47,2.52,11.49a60.38,60.38,0,0,1,.79,12.79c0,.55-.09,1.16-.16,1.78l-.24,1.83c-.09.58-.21,1-.32,1.57l-.16.77,0,.2a1.65,1.65,0,0,1-.09.37l-.13.43a46.5,46.5,0,0,1-2.53,6.53,97.35,97.35,0,0,1-6.91,11.91c-2.56,3.83-5.28,7.59-8.12,11.32-5.64,7.49-11.71,14.93-17.64,22.69-3,3.88-5.89,7.84-8.63,11.93a87.06,87.06,0,0,0-7.34,12.73c-2,4.39-3.41,9.07-3,13.41a14,14,0,0,0,.26,1.6c.14.52.27,1.05.43,1.47a12.83,12.83,0,0,0,1.53,3,18,18,0,0,0,5,4.86c4,2.77,9.07,4.48,14.23,5.63a85.33,85.33,0,0,0,16.07,1.83,140.85,140.85,0,0,0,33.09-3.21c5.49-1.17,11-2.59,16.33-4.31a140.27,140.27,0,0,0,15.75-6.2,84.42,84.42,0,0,0,14.42-8.58,45.61,45.61,0,0,0,6.08-5.49,30.35,30.35,0,0,0,2.47-3.11,22.62,22.62,0,0,0,1.86-3.22l.4-1,.1-.25s.13-.28.05-.14l.09-.38.2-.77c0-.26,0-.53.08-.8a11.18,11.18,0,0,0-.29-3.36,25.49,25.49,0,0,0-3-7,102.63,102.63,0,0,0-10-13.25c-3.66-4.32-7.49-8.57-11.21-13q-2.81-3.33-5.43-6.92a62.85,62.85,0,0,1-4.92-7.67c-.38-.69-.71-1.42-1.06-2.13s-.64-1.52-1-2.28-.52-1.62-.77-2.43a29.45,29.45,0,0,1-.54-2.94l-.07-1.05,0-.53a5.72,5.72,0,0,1,0-.58v-.3c0-.79,0-1.59.11-2.36.11-1.57.3-3.1.55-4.6a95.16,95.16,0,0,1,4.68-17,308.67,308.67,0,0,1,13.54-30.51c9.57-19.44,19.64-37.65,26.84-55.51a131.56,131.56,0,0,0,4.59-13.27c.61-2.19,1.14-4.36,1.52-6.51a47,47,0,0,0,.79-6.32,24.4,24.4,0,0,0-1.63-11.21,11.57,11.57,0,0,0-.58-1.17,8.84,8.84,0,0,0-.65-1.12l-.34-.55-.33-.44-.33-.46c-.11-.16-.35-.39-.52-.58l-.56-.61-.14-.15c-.17-.17.07.06,0,0l-.22-.2-.44-.41-.48-.37a15,15,0,0,0-2.11-1.36,29.06,29.06,0,0,0-10.64-2.68,61.44,61.44,0,0,0-11.43.26,112.27,112.27,0,0,0-21.3,4.55,136.65,136.65,0,0,0-18.08,7c-2.72,1.28-5.29,2.59-7.72,3.91s-4.66,2.7-6.76,4c-8.4,5.43-14.15,10.92-17.35,15.17a30.18,30.18,0,0,0-3.18,5.13,15.13,15.13,0,0,0-.62,1.42C1193.53,963.64,1193.47,963.8,1193.45,963.83Z" transform="translate(-462.5 -593)"/>
    </g>
  </g>
  <g id="Capa_5" data-name="Capa 5">
    <g>
      <path class="cls-10" d="M1004.42,957.72c3.15-13.07,54.84-11.36,66.64-5.08,17.68,9.4,34.67,75.34,34.67,75.34s8.88-61.5,27.37-72.52c14.09-8.41,58.36-15.55,62.78,1.65,8.09,31.44-51.19,66.76-74.23,97.05,15.59,22.71,106.37,8.14,113.94,38.74,5.51,22.26-51.23,33.82-72.4,29-19-4.35-42.25-42.45-60.51-37.24-22.14,6.31,12.61,62.58-6.93,74.8-21.08,13.19-62.3-4.33-64.25-32.22,9.69-39.11,24.43-55.28,41.69-73.16C1074.69,1024.82,999.17,979.45,1004.42,957.72Z" transform="translate(-462.5 -593)"/>
      <path class="cls-2" d="M1003.93,957.59l.18-.6.27-.62a6.86,6.86,0,0,1,.68-1.11,9.59,9.59,0,0,1,1.81-1.79,18.35,18.35,0,0,1,4.34-2.37,48.57,48.57,0,0,1,9.43-2.49,94.84,94.84,0,0,1,9.64-1.12c3.23-.22,6.46-.35,9.7-.35a141.46,141.46,0,0,1,19.38,1.21,57.75,57.75,0,0,1,9.65,2,19.92,19.92,0,0,1,2.4,1l.15.07.08,0,0,0,.12.07.26.15.52.31c.34.22.68.38,1,.65.69.55,1.47,1.09,2.07,1.68s1.27,1.15,1.81,1.78a56,56,0,0,1,6,7.94c1.76,2.78,3.4,5.62,4.89,8.52,3,5.79,5.66,11.74,8.13,17.74s4.75,12.09,6.87,18.21q1.59,4.6,3.07,9.24c1,3.09,2,6.17,2.86,9.34l-7.19.39c.71-5.81,1.72-11.43,2.79-17.11s2.32-11.31,3.81-16.92a163.84,163.84,0,0,1,5.27-16.7c1-2.76,2.18-5.5,3.49-8.21a57.91,57.91,0,0,1,4.53-8,32.45,32.45,0,0,1,6.58-7.36c.72-.54,1.49-1,2.24-1.55s1.2-.7,2.08-1.12L1134,950c.38-.19.72-.32,1.08-.49.72-.32,1.43-.61,2.14-.88a90.44,90.44,0,0,1,17.31-4.62,100.07,100.07,0,0,1,17.77-1.5,61.53,61.53,0,0,1,9.11.81,33.55,33.55,0,0,1,9.22,2.85,19.77,19.77,0,0,1,4.4,2.94,15.87,15.87,0,0,1,1.9,2.1,13.78,13.78,0,0,1,.82,1.18l.68,1.3A8.12,8.12,0,0,1,1199,955l.22.69.1.35.06.17c.11.48,0,.17.06.29v.07l.35,2.11a16.32,16.32,0,0,1,.23,2.42l.06,1.3,0,.65,0,.61-.19,2.41c-.07.8-.26,1.57-.4,2.35a36.2,36.2,0,0,1-1.2,4.55,48.93,48.93,0,0,1-3.83,8.29A88.22,88.22,0,0,1,1184,995.46c-3.86,4.34-7.93,8.43-12.08,12.4s-8.43,7.77-12.68,11.57l-12.74,11.39c-2.11,1.91-4.21,3.82-6.28,5.76s-4.1,3.91-6.08,5.92a139,139,0,0,0-11.26,12.58l.05-1.78a16.42,16.42,0,0,0,4.64,4.36,34.31,34.31,0,0,0,6,3,79.15,79.15,0,0,0,13.22,3.63c9,1.8,18.33,2.68,27.6,3.67s18.61,1.83,27.92,3.39a120.3,120.3,0,0,1,13.94,3.08,46.91,46.91,0,0,1,13.48,6,24.08,24.08,0,0,1,5.72,5.43c.41.55.77,1.14,1.13,1.72s.68,1.2.94,1.84a17.5,17.5,0,0,1,.73,1.94l.15.5.08.24c0,.15,0-.15.08.36l0,.11.16.86.16.86,0,.22v.3l0,.6,0,1.21v.6l-.08.55c-.12.72-.2,1.47-.39,2.17s-.45,1.38-.69,2.06a22,22,0,0,1-4.7,6.72,45.45,45.45,0,0,1-12.52,8.39,88.46,88.46,0,0,1-13.62,5.15,125.76,125.76,0,0,1-14.07,3.25,116.75,116.75,0,0,1-14.38,1.64c-2.44.09-4.88.15-7.36.05a52.66,52.66,0,0,1-7.57-.77l-1-.18-.24,0-.12,0-.31-.07-.43-.12-.84-.23-.42-.11-.53-.18c-.69-.25-1.45-.51-2.09-.78l-1.83-.84a53.58,53.58,0,0,1-6.56-4,130.91,130.91,0,0,1-11.27-9.12c-3.55-3.13-7-6.28-10.43-9.28a100.83,100.83,0,0,0-10.52-8.17,35,35,0,0,0-5.36-2.92,15.05,15.05,0,0,0-5-1.21,5.09,5.09,0,0,0-1.11,0,4.52,4.52,0,0,0-1,.17l-.26.05-.13,0,.13,0-.1,0-.83.28a.89.89,0,0,1-.23.13c-.08,0-.22.14-.34.19a4.74,4.74,0,0,0-1.94,2.75,17.28,17.28,0,0,0-.65,5.29,50.06,50.06,0,0,0,.51,6.3c.6,4.34,1.55,8.8,2.54,13.34s2,9.14,2.84,13.92a69.87,69.87,0,0,1,1.23,15.09,27.71,27.71,0,0,1-1.63,8.46,17.65,17.65,0,0,1-5.85,8l-1,.73-.34.21-.09.05-.19.11-.38.21c-.53.3-1,.57-1.58.88l-2.06,1c-.71.34-1.31.5-2,.75a38.18,38.18,0,0,1-3.93,1.16c-1.33.25-2.65.56-4,.69a49,49,0,0,1-15.6-.68,60.07,60.07,0,0,1-27.32-13.23,45.64,45.64,0,0,1-10-12,35.64,35.64,0,0,1-4.64-15.39l-.06-.84.19-.68,1.47-5.25c.47-1.76,1-3.5,1.59-5.24s1.08-3.48,1.73-5.2,1.2-3.45,1.89-5.15l2.1-5.09,2.32-5c.81-1.65,1.68-3.28,2.52-4.92s1.82-3.2,2.73-4.8,2-3.13,2.93-4.69,2.1-3,3.17-4.51,2.21-2.94,3.37-4.35,2.3-2.85,3.52-4.2,2.4-2.74,3.65-4.05,2.48-2.64,3.74-3.93,2.53-2.56,3.8-3.83l3.82-3.77-.8,1.85a18.49,18.49,0,0,0-.75-6.51,37.24,37.24,0,0,0-2.65-6.56,81.9,81.9,0,0,0-8.09-12.32c-3-4-6.33-7.75-9.72-11.46s-6.88-7.37-10.39-11l-10.62-10.83c-3.53-3.63-7-7.3-10.4-11.1a102.22,102.22,0,0,1-9.44-12,34.77,34.77,0,0,1-3.55-6.82,13.49,13.49,0,0,1-.78-7.73Zm1,.26a12.38,12.38,0,0,0,.8,7.11,33.23,33.23,0,0,0,3.49,6.58,98.07,98.07,0,0,0,9.53,11.65c3.45,3.67,7,7.2,10.69,10.71s7.3,7,11,10.45,7.36,6.95,11,10.53,7.14,7.26,10.52,11.12a85.91,85.91,0,0,1,9.28,12.49,41.15,41.15,0,0,1,3.46,7.3,24,24,0,0,1,1.44,8.41v1l-.79.88-3.56,4c-1.17,1.32-2.37,2.63-3.5,4s-2.3,2.66-3.4,4-2.2,2.72-3.26,4.09-2.07,2.79-3.11,4.18-1.94,2.86-2.92,4.29l-2.72,4.39c-.85,1.5-1.73,3-2.55,4.49s-1.59,3-2.34,4.6-1.46,3.11-2.15,4.69l-2,4.78-1.76,4.87c-.59,1.63-1.1,3.29-1.65,4.93s-1,3.31-1.5,5-1,3.33-1.38,5l-1.27,5.07.13-1.51c.71,7.76,5.18,15,11.58,20.35a49.11,49.11,0,0,0,10.63,6.75,51.15,51.15,0,0,0,12,3.86,39.87,39.87,0,0,0,12.25.43c1-.08,2-.32,2.93-.49a27.7,27.7,0,0,0,2.77-.82,12.74,12.74,0,0,0,1.3-.49l1.13-.49c.43-.2,1-.55,1.48-.82l.38-.21.19-.11.1,0-.16.09.39-.27a6.87,6.87,0,0,0,2.28-3.2,17.91,17.91,0,0,0,1-5.23,61.48,61.48,0,0,0-1.07-12.75c-.76-4.43-1.72-8.94-2.65-13.53s-1.88-9.27-2.5-14.18a57.42,57.42,0,0,1-.5-7.66,26.85,26.85,0,0,1,1.27-8.51,16.16,16.16,0,0,1,2.34-4.5,14.22,14.22,0,0,1,4-3.62c.4-.22.76-.44,1.2-.64s.92-.4,1.38-.58l.83-.27.1,0a1.9,1.9,0,0,1,.34-.1l.3-.07.6-.13a13,13,0,0,1,2.39-.36,13.58,13.58,0,0,1,2.38,0,24.53,24.53,0,0,1,8.49,2.11,43.9,43.9,0,0,1,6.86,3.86,109,109,0,0,1,11.44,9.16c3.53,3.18,6.93,6.41,10.33,9.51a123.65,123.65,0,0,0,10.32,8.66,47.82,47.82,0,0,0,5.33,3.38l1.34.64c.43.2.78.32,1.18.49l.29.12.42.13.84.24.42.12c.22.06-.17,0-.1,0l.09,0,.19,0,.75.15a43.65,43.65,0,0,0,6.33.77c2.18.14,4.41.13,6.63.1a123.77,123.77,0,0,0,26.74-3.78,87.71,87.71,0,0,0,12.7-4.27,39.1,39.1,0,0,0,10.93-6.64,15.93,15.93,0,0,0,3.51-4.52c.14-.41.3-.82.46-1.23s.17-.84.28-1.26l.07-.32v-.27c0-.18,0-.36,0-.54l0-.27,0-.14,0-.22-.13-.86-.12-.87,0-.11c.09.45,0,.08,0,.15l0-.17-.09-.34a10.18,10.18,0,0,0-.45-1.35c-.15-.46-.4-.87-.59-1.31s-.47-.83-.75-1.24a18.32,18.32,0,0,0-4.22-4.31,42.29,42.29,0,0,0-11.79-5.77,107.51,107.51,0,0,0-13.27-3.42c-9-1.78-18.28-3-27.54-4.12s-18.56-2.32-27.81-4.16a83,83,0,0,1-13.72-3.87,37.17,37.17,0,0,1-6.51-3.29,20.43,20.43,0,0,1-5.51-5.16l-.63-.89.68-.89a139.81,139.81,0,0,1,11.4-13c2-2.06,4-4.07,6.09-6s4.11-4,6.17-6l12.44-11.73c4.12-3.92,8.18-7.89,12.12-11.94s7.75-8.21,11.25-12.57a82.58,82.58,0,0,0,9.15-13.7,42.74,42.74,0,0,0,3-7.34,31.19,31.19,0,0,0,.8-3.74c.07-.63.22-1.25.24-1.87l.05-1.86,0-.46-.05-.42-.07-.83a9.82,9.82,0,0,0-.24-1.81l-.44-2.09,0-.07c0,.08-.06-.27,0,.17l0-.08-.06-.16-.13-.32a2.24,2.24,0,0,0-.28-.63l-.33-.59c-.12-.19-.29-.36-.43-.54a7.45,7.45,0,0,0-1-1,12.58,12.58,0,0,0-2.76-1.67,26.09,26.09,0,0,0-7.13-1.87,54.51,54.51,0,0,0-7.92-.4,90.9,90.9,0,0,0-16.2,1.74c-2.69.52-5.35,1.16-8,1.89a77.83,77.83,0,0,0-7.65,2.52c-.61.23-1.22.48-1.8.75-.29.13-.61.26-.87.39l-.77.38c-.42.18-1.31.72-1.68.91l-1.27.89a23.93,23.93,0,0,0-4.69,5.4,56.78,56.78,0,0,0-3.89,6.86c-1.19,2.41-2.27,4.92-3.27,7.49-2,5.12-3.74,10.41-5.28,15.79s-3,10.81-4.24,16.29-2.37,11-3.37,16.5l-7.2.39c-.71-3.05-1.51-6.17-2.32-9.25s-1.67-6.17-2.55-9.24c-1.77-6.14-3.63-12.25-5.7-18.29s-4.32-12-6.92-17.79c-1.28-2.91-2.7-5.73-4.23-8.49a47.69,47.69,0,0,0-5.22-7.74c-.47-.62-1-1.12-1.54-1.69s-1.07-.95-1.6-1.45c-.27-.23-.65-.45-1-.67l-.51-.34-.25-.16s.14.07.05,0l0,0-.06,0-.12-.07a18.2,18.2,0,0,0-2-.91,53.87,53.87,0,0,0-9.13-2.36,127.86,127.86,0,0,0-19.07-1.82,109.27,109.27,0,0,0-19.14,1.09,43.79,43.79,0,0,0-9.22,2.36,16.78,16.78,0,0,0-4.11,2.22A6.55,6.55,0,0,0,1004.9,957.85Z" transform="translate(-462.5 -593)"/>
    </g>
  </g>
  <g id="Capa_9" data-name="Capa 9">
    <g>
      <path class="cls-10" d="M955,947.66c9.44-26.21,83.52-58.89,104-40,29.88,27.57-45.3,115.35-46,156-.33,18.79,42.88,48.51,36,66-12.25,31.13-115.86,51.3-132,22-13.38-24.3,43.88-71.48,52-98C976.77,1028.1,945.89,972.81,955,947.66Z" transform="translate(-462.5 -593)"/>
      <path class="cls-2" d="M954.48,947.49a32.49,32.49,0,0,1,6.11-9.9,70.55,70.55,0,0,1,8.27-8.13,137.67,137.67,0,0,1,19-13.22q5-2.91,10.27-5.46c3.48-1.71,7-3.31,10.65-4.76a114.77,114.77,0,0,1,22.62-6.68,63,63,0,0,1,12.14-1,33.13,33.13,0,0,1,12.71,2.55,21.64,21.64,0,0,1,6,3.86,24.62,24.62,0,0,1,4.46,5.38,26.15,26.15,0,0,1,2.78,6.36,31.78,31.78,0,0,1,1.2,6.58,51.42,51.42,0,0,1-.68,12.66,93.76,93.76,0,0,1-2.85,11.81,188.76,188.76,0,0,1-8.51,22.05c-6.43,14.2-13.72,27.77-20.8,41.3-3.53,6.77-7,13.54-10.15,20.38a151.31,151.31,0,0,0-8.11,20.7,53.28,53.28,0,0,0-2,10.34l-.08,1.26c0,.39,0,.65,0,1a5.18,5.18,0,0,0,.11,1,6.85,6.85,0,0,0,.21,1,24.64,24.64,0,0,0,1.67,4.5,65.57,65.57,0,0,0,5.66,9.13c2.17,3,4.48,6,6.84,9,4.72,6,9.66,12,14,18.7a48.08,48.08,0,0,1,5.49,11,13,13,0,0,1,.45,1.57c.12.54.26,1.07.36,1.62l.21,1.69a16.91,16.91,0,0,1,0,1.75c0,.29,0,.58,0,.88l-.13.89a9,9,0,0,1-.36,1.77c-.19.57-.37,1.18-.58,1.71l-.7,1.48a33,33,0,0,1-8,9.54,66.34,66.34,0,0,1-9.81,6.79,102.66,102.66,0,0,1-10.53,5.18c-3.57,1.56-7.21,2.94-10.89,4.17a192.8,192.8,0,0,1-45.4,9.23,121.49,121.49,0,0,1-23.35-.15,65.15,65.15,0,0,1-11.68-2.28,35.93,35.93,0,0,1-11.14-5.38,22.48,22.48,0,0,1-4.64-4.65,18.91,18.91,0,0,1-3-6.12,26.25,26.25,0,0,1,.09-13,55.46,55.46,0,0,1,4.26-11.53,107.08,107.08,0,0,1,5.81-10.4c8.41-13.31,18.36-25.13,27.6-37.15,2.3-3,4.59-6,6.71-9.06a93,93,0,0,0,5.89-9.28,39.38,39.38,0,0,0,2.22-4.72,27.64,27.64,0,0,0,1.32-4.82,46.73,46.73,0,0,0,.4-10.7,152.93,152.93,0,0,0-3.38-22.32c-.8-3.73-1.66-7.46-2.52-11.2l-2.67-11.2q-1.29-5.62-2.5-11.28c-.76-3.77-1.48-7.56-2-11.38a77,77,0,0,1-.89-11.55A35,35,0,0,1,954.48,947.49Zm.94.34A33.55,33.55,0,0,0,953.81,959,69.88,69.88,0,0,0,955,970.33a182.38,182.38,0,0,0,5.66,22.2l7,22a154,154,0,0,1,5.48,22.79,52.44,52.44,0,0,1,.43,12.26,31.37,31.37,0,0,1-1.26,6.37,45.67,45.67,0,0,1-2.32,5.83c-3.55,7.38-8.07,13.8-12.65,20.07-9.21,12.48-19.2,24.07-27.71,36.39-4.19,6.13-8.14,12.52-10.2,19.17a20,20,0,0,0-.82,9.7,14.41,14.41,0,0,0,5,8,29.52,29.52,0,0,0,9.18,5.16A60.82,60.82,0,0,0,943.4,1163a109,109,0,0,0,22.58,1,150.86,150.86,0,0,0,22.57-3,154.73,154.73,0,0,0,21.92-6.2c3.56-1.31,7.06-2.76,10.47-4.36a96.14,96.14,0,0,0,9.88-5.42,55.6,55.6,0,0,0,8.77-6.74,28.23,28.23,0,0,0,6.27-8.36l.46-1.15c.11-.36.17-.69.27-1a4.17,4.17,0,0,0,.14-1.06l.06-.53,0-.56a7.14,7.14,0,0,0-.09-1.12l-.21-1.16c-.09-.38-.23-.78-.34-1.17a8.17,8.17,0,0,0-.41-1.17,42.08,42.08,0,0,0-5.33-9.2c-2.16-3-4.56-5.87-7-8.74s-5-5.76-7.5-8.67-5.06-5.88-7.47-9a74,74,0,0,1-6.75-10.21c-.46-1-1-1.9-1.38-3-.2-.53-.42-1-.61-1.57l-.51-1.67a15.8,15.8,0,0,1-.39-1.77,10.85,10.85,0,0,1-.26-1.85c0-.62-.1-1.32-.09-1.89l.05-1.61a62.27,62.27,0,0,1,2.06-12.27,156.46,156.46,0,0,1,8.1-22.32c3.14-7.14,6.53-14.11,10-21,6.84-13.8,14.07-27.28,20.39-41a202.47,202.47,0,0,0,8.4-20.72,83.27,83.27,0,0,0,2.78-10.48,43.63,43.63,0,0,0,.91-10.24c0-.83-.13-1.62-.2-2.43s-.23-1.57-.44-2.32a16.36,16.36,0,0,0-1.6-4.24,15.66,15.66,0,0,0-2.62-3.63,13.09,13.09,0,0,0-3.48-2.6,27.55,27.55,0,0,0-9.58-2.58,56.57,56.57,0,0,0-10.81,0,108.62,108.62,0,0,0-22,4.4c-3.62,1.09-7.2,2.35-10.74,3.71s-7,3-10.41,4.61a109.53,109.53,0,0,0-19.41,11.94,65.09,65.09,0,0,0-8.34,7.74A31.08,31.08,0,0,0,955.42,947.83Z" transform="translate(-462.5 -593)"/>
    </g>
  </g>
  <g id="Capa_8" data-name="Capa 8">
    <g>
      <path class="cls-10" d="M792,985.91C822,980,867,978,872,894c4-69-100-146-163-55.09-42,71-23,239.09,7,327.09,5.81,17,70.15,15.35,87,8.91,47-18,69-34,75-97C885,1034.91,831,996.91,792,985.91Zm28.45,123.43c-6.42,23.66-58.42,22.66-71,3-11.77-18.4-16.48-35-17-61-.42-21.34,42.6-16.66,60-5C809.26,1057.63,828.76,1078.64,820.42,1109.34Z" transform="translate(-462.5 -593)"/>
      <g>
        <path class="cls-2" d="M791.87,985.41c7.52-1.7,15.08-3.16,22.4-5.25A79.82,79.82,0,0,0,835,971.28a57.4,57.4,0,0,0,16.15-15.13,74.63,74.63,0,0,0,10.1-19.8,126.74,126.74,0,0,0,5.26-21.87c.59-3.72,1-7.47,1.35-11.24.19-1.88.3-3.77.44-5.66l.15-2.83,0-.71v-.18h0V892a73.08,73.08,0,0,0-3.25-21.58,88,88,0,0,0-3.87-10.3,104.44,104.44,0,0,0-5.13-9.77A102.36,102.36,0,0,0,843,832.65q-3.79-4-8-7.67a100.38,100.38,0,0,0-8.66-6.87,101.82,101.82,0,0,0-19.22-10.69,81.42,81.42,0,0,0-10.38-3.55,74.39,74.39,0,0,0-10.74-2.2,71.39,71.39,0,0,0-21.88.51A66.19,66.19,0,0,0,753.49,805a71.9,71.9,0,0,0-10.19,4.47,77.35,77.35,0,0,0-9.48,6,85.11,85.11,0,0,0-8.7,7.19,116.48,116.48,0,0,0-14.83,17.18l.06-.09a123.67,123.67,0,0,0-9.18,19.3,175.76,175.76,0,0,0-6.24,20.55c-1.69,7-3,14-4.07,21.15S689,915,688.43,922.14s-.91,14.36-1.09,21.54-.15,14.39,0,21.57c.31,14.38,1.18,28.75,2.49,43.06q1,10.74,2.25,21.45c.84,7.14,1.81,14.26,2.82,21.37q3.06,21.33,7.3,42.46t9.88,41.85q2.82,10.36,6.09,20.56l1.68,5.08.86,2.53.22.63c0,.11-.14-.38,0-.1l.07.16.12.31.07.16c0,.07,0,.09,0,.07l0,0s0,0,.08.11a8.15,8.15,0,0,0,2.33,2.18,22.67,22.67,0,0,0,3.88,2,55.25,55.25,0,0,0,9.44,2.69c3.32.67,6.75,1.14,10.2,1.5a179,179,0,0,0,21,.79,184.28,184.28,0,0,0,21-1.55,75.34,75.34,0,0,0,9.89-1.9c.76-.21,1.48-.45,2.13-.69l2.53-1,5-2c13.17-5.26,26.05-11.22,36.41-20a72.75,72.75,0,0,0,7.21-7,70.21,70.21,0,0,0,6-8.09,80.61,80.61,0,0,0,4.84-9,98.25,98.25,0,0,0,3.73-9.65,143.85,143.85,0,0,0,5-20.41q.92-5.22,1.6-10.52l.32-2.65.17-1.33.08-.66.06-.51,0-.33.21-1.34c.07-.45.1-.8.15-1.21.11-.77.14-1.62.21-2.45a48.74,48.74,0,0,0-3.2-19.77,73.11,73.11,0,0,0-10.16-18c-8.43-11.22-19.35-20.65-31.15-28.66a157.43,157.43,0,0,0-38.41-19.08l-1.74-.57Zm.23,0a135.34,135.34,0,0,1,20.67,7,157.32,157.32,0,0,1,19.5,9.91,146.47,146.47,0,0,1,18,12.6A116.13,116.13,0,0,1,866,1030.47a78.28,78.28,0,0,1,11.81,19.17,55.16,55.16,0,0,1,4.49,22.57c0,1-.06,1.94-.16,3,0,.49-.08,1-.14,1.49l-.17,1.34-.49,5.29q-.54,5.48-1.32,11a148.39,148.39,0,0,1-4.71,21.79,105.17,105.17,0,0,1-3.85,10.65,90.83,90.83,0,0,1-5.21,10.21,80.17,80.17,0,0,1-6.71,9.42,82.06,82.06,0,0,1-8.09,8.27,89.53,89.53,0,0,1-9.1,7c-3.15,2.11-6.41,4-9.69,5.82a217.71,217.71,0,0,1-20.14,9.37l-5.09,2.06-2.52,1c-1.05.4-2,.73-3,1a86.59,86.59,0,0,1-11.34,2.33,185.63,185.63,0,0,1-22.25,1.64,189.21,189.21,0,0,1-22.29-.87c-3.73-.4-7.47-.91-11.22-1.68a62.06,62.06,0,0,1-11.36-3.32,32.91,32.91,0,0,1-5.72-3,18.4,18.4,0,0,1-5.34-5.36,9,9,0,0,1-.59-1.06l-.29-.59a2.25,2.25,0,0,1-.1-.23l-.06-.15-.13-.32-.06-.16-.15-.41-.21-.66-.86-2.61-1.65-5.23q-3.22-10.48-5.95-21.09c-3.65-14.12-6.7-28.36-9.34-42.66s-4.82-28.69-6.56-43.12c-.89-7.21-1.61-14.44-2.24-21.68s-1.15-14.48-1.51-21.74c-.75-14.51-1-29-.77-43.56q.19-10.89.85-21.77c.42-7.25,1-14.49,1.79-21.71s1.71-14.42,2.92-21.59,2.66-14.29,4.4-21.35A193.6,193.6,0,0,1,698.34,858a126.1,126.1,0,0,1,9.24-19.87l0-.05,0,0a132.64,132.64,0,0,1,14.76-18.14c.67-.71,1.4-1.37,2.1-2.05s1.4-1.38,2.14-2c1.48-1.29,2.92-2.63,4.48-3.84a85.16,85.16,0,0,1,9.69-6.81,77,77,0,0,1,10.62-5.44,70.78,70.78,0,0,1,11.4-3.76,74.85,74.85,0,0,1,24-1.88,83.29,83.29,0,0,1,12,1.85,89,89,0,0,1,11.54,3.57,96.85,96.85,0,0,1,11,5A109.28,109.28,0,0,1,841,818.23a119.15,119.15,0,0,1,8.53,8.44A111.28,111.28,0,0,1,863.63,846a94.69,94.69,0,0,1,9.23,22.19,75.37,75.37,0,0,1,2.74,24l-.08,1.44-.06.81-.06.73-.23,2.92c-.2,1.94-.37,3.89-.62,5.83-.46,3.88-1,7.76-1.73,11.61a124,124,0,0,1-6.3,22.74A79.68,79.68,0,0,1,854.93,959a61.57,61.57,0,0,1-18,15.41,80,80,0,0,1-22,8.11c-7.58,1.75-15.25,2.62-22.83,3.85Z" transform="translate(-462.5 -593)"/>
        <path class="cls-2" d="M820.9,1109.49l-.24.8a18.73,18.73,0,0,1-.91,2.33,22.87,22.87,0,0,1-5.79,7.45,42,42,0,0,1-12.91,7.29,58.1,58.1,0,0,1-19.17,3.47,50,50,0,0,1-22.92-5,31.26,31.26,0,0,1-10.66-8.42,24.53,24.53,0,0,1-2.06-3.1l-1.42-2.78c-.48-.91-1-2-1.42-2.93s-.93-2-1.35-3A138.12,138.12,0,0,1,734,1080c-1-4.42-1.75-8.92-2.37-13.45s-1.21-9.1-1.63-13.68l-.08-.86,0-.43v-.1c0-.08,0,0,0-.2v-.21c0-.29,0-.54-.05-.87l0-1.1a15,15,0,0,1,.79-4.12,15.47,15.47,0,0,1,4.93-6.89,23.53,23.53,0,0,1,7-3.84,36.92,36.92,0,0,1,7.27-1.79,63.59,63.59,0,0,1,14.23-.31,80.79,80.79,0,0,1,13.56,2.24,64.52,64.52,0,0,1,12.73,4.53c1,.5,2,1,3,1.62.5.3,1,.59,1.48.91l.76.5.62.43c.79.54,1.7,1.19,2.55,1.83s1.66,1.27,2.46,1.93a78,78,0,0,1,8.77,8.3,57.57,57.57,0,0,1,6.7,9.18,50.74,50.74,0,0,1,6.49,18.63,59.7,59.7,0,0,1,.17,14.81,80,80,0,0,1-1.58,9.21c-.51,2.08-.82,3.18-.82,3.18Zm-1-.28.71-3.15a43.44,43.44,0,0,0,.76-9.06,40.25,40.25,0,0,0-.68-6.39,43.89,43.89,0,0,0-2.13-7.17,53.87,53.87,0,0,0-9.12-14.85,89,89,0,0,0-14.84-14.1c-.72-.56-1.48-1.1-2.23-1.64l-2.32-1.6-.62-.43-.5-.32c-.35-.23-.73-.45-1.1-.67-.76-.44-1.56-.86-2.36-1.29a73.56,73.56,0,0,0-34.81-7.5,39.12,39.12,0,0,0-5.91.79,19.85,19.85,0,0,0-5.18,1.94,9.07,9.07,0,0,0-3.52,3.51,9.5,9.5,0,0,0-.88,2.45l-.11.6c0,.24-.05.55-.08.83l0,.21v.55l0,.84a97.57,97.57,0,0,0,2,26.6,67.65,67.65,0,0,0,4.11,12.36,77.58,77.58,0,0,0,6.16,11.07c.55.88,1.13,1.73,1.72,2.55s1.13,1.65,1.78,2.5l1.86,2.52a22.63,22.63,0,0,0,1.65,1.82,30.63,30.63,0,0,0,8.62,5.6,58.56,58.56,0,0,0,9.77,3.38,86,86,0,0,0,9.74,1.94,64.15,64.15,0,0,0,17.69.31,29.89,29.89,0,0,0,12.91-4.63,17.71,17.71,0,0,0,5.86-6.62,17.31,17.31,0,0,0,.89-2.17l.24-.79Z" transform="translate(-462.5 -593)"/>
      </g>
    </g>
    <path class="cls-11" d="M841,913c0,23.2-44.39,29.83-67,35-35,8-52.19-29.83-51-53,2-39,35-43,59-35C820,874,841,889.8,841,913Z" transform="translate(-462.5 -593)"/>
    <circle class="cls-9" cx="314.5" cy="310" r="29"/>
    <circle class="cls-12" cx="325" cy="297.5" r="7.5"/>
  </g>
  <g id="Capa_4" data-name="Capa 4">
    <g>
      <path class="cls-10" d="M864.4,830.6c26.52-27.55,55.58-42.7,71.28-31,57.72,43-94.48,241.14-33.15,304.87,16.44,13.66,54.7-53.4,96.13-25.84,21.23,14.11,0,56.84-48.06,67.18-23.1,7.3-89.51,34.44-127.63,15.5C866.06,1075.19,882.64,939.12,864.4,830.6Z" transform="translate(-462.5 -593)"/>
      <path class="cls-2" d="M864,830.26c2.8-3.17,5.71-6.27,8.71-9.27s6.17-5.85,9.43-8.6a107.6,107.6,0,0,1,21.39-14.3A55.32,55.32,0,0,1,916,793.66a30.78,30.78,0,0,1,13.81-.08,22.64,22.64,0,0,1,6.69,2.84c.26.16.5.34.76.51l.19.13.23.18.32.23c.43.34.81.59,1.29,1a33.46,33.46,0,0,1,10,14.17,52.16,52.16,0,0,1,3,13.21,80.31,80.31,0,0,1,.17,13.24,161.54,161.54,0,0,1-4,25.62q-1.44,6.27-3.14,12.44c-1.15,4.12-2.38,8.2-3.65,12.26-2.54,8.12-5.28,16.15-8.08,24.14l-4.26,12-4.4,11.88-8.82,23.69c-3,7.88-5.79,15.79-8.59,23.7s-5.41,15.87-7.83,23.88-4.58,16.07-6.29,24.22a156.27,156.27,0,0,0-3.39,24.65,81.7,81.7,0,0,0,2.11,24.49,48.54,48.54,0,0,0,11.46,21.3l-.13-.13a6.43,6.43,0,0,0,4.87,1.48,16.7,16.7,0,0,0,5.63-1.68,74.58,74.58,0,0,0,10.76-6.65c3.5-2.48,6.95-5.09,10.44-7.66s7.06-5.07,10.76-7.41a92.1,92.1,0,0,1,11.56-6.3,56.07,56.07,0,0,1,12.67-4.12,39.41,39.41,0,0,1,13.49-.24,40.65,40.65,0,0,1,12.79,4.42c1,.54,2,1.11,2.92,1.72l.4.25.33.23.68.47c.49.38,1,.76,1.44,1.16a19.41,19.41,0,0,1,4.47,5.66,24,24,0,0,1,2.26,13.94,39.69,39.69,0,0,1-4.13,13.15,58.1,58.1,0,0,1-7.54,11.32,78,78,0,0,1-20.8,17.13,93.32,93.32,0,0,1-25.11,9.75l.38-.1c-5.08,1.71-10.26,3.57-15.45,5.38s-10.43,3.59-15.7,5.27a313.2,313.2,0,0,1-32.23,8.61c-5.47,1.12-11,2.06-16.61,2.73a142.94,142.94,0,0,1-17,1.06,95,95,0,0,1-17.25-1.48,65.25,65.25,0,0,1-16.92-5.44l-4.44-2.19,2.16-4.64c1.47-3.14,3-6.24,4.41-9.41l2.1-4.76,1-2.38,1-2.41c1.31-3.22,2.66-6.41,3.85-9.68l1.87-4.86c.61-1.63,1.18-3.27,1.77-4.91l1.76-4.91,1.65-5c.54-1.65,1.11-3.29,1.63-5l1.54-5c1.06-3.32,2-6.67,3-10s1.84-6.72,2.77-10.08,1.76-6.75,2.62-10.13,1.63-6.78,2.42-10.18,1.51-6.81,2.24-10.22,1.39-6.85,2.05-10.27,1.27-6.87,1.89-10.31,1.21-6.88,1.76-10.33l.84-5.18.75-5.19.75-5.19.67-5.2.67-5.2.58-5.21c.39-3.48.81-7,1.13-10.44s.71-7,1-10.45.6-7,.81-10.47c.48-7,.84-14,1.15-21,.11-3.5.28-7,.35-10.5s.15-7,.17-10.51l0-10.52-.13-10.52-.33-10.52-.47-10.51L867,862.17l-.84-10.5-1-10.5-1.25-10.73Zm.91.53,2,10.12,1.79,10.44,1.55,10.48,1.31,10.53,1.11,10.54.87,10.58.68,10.59c.19,3.53.34,7.07.49,10.61s.18,7.07.28,10.61.06,7.08.1,10.62q0,10.62-.36,21.25c-.09,3.54-.3,7.08-.46,10.62s-.4,7.07-.63,10.61-.49,7.07-.8,10.6l-.47,5.3-.55,5.29-.55,5.29-.63,5.28-.64,5.28-.72,5.28c-.48,3.51-1,7-1.53,10.53s-1.11,7-1.76,10.51-1.23,7-1.95,10.47-1.36,7-2.14,10.44-1.48,6.95-2.33,10.4-1.62,6.92-2.54,10.36-1.77,6.89-2.79,10.3-1.95,6.85-3,10.24l-1.58,5.1c-.54,1.7-1.13,3.38-1.69,5.07l-1.7,5.07-1.81,5c-.61,1.68-1.19,3.36-1.83,5l-1.94,5c-1.28,3.33-2.71,6.6-4.1,9.89l-1,2.47-1.12,2.44-2.22,4.88c-1.5,3.24-3.13,6.43-4.69,9.65l-2.28-6.82a55.14,55.14,0,0,0,14.25,4.73,85.11,85.11,0,0,0,15.46,1.52,158.91,158.91,0,0,0,31.71-3.16,320.17,320.17,0,0,0,31.42-7.91c5.2-1.56,10.38-3.22,15.57-4.92s10.35-3.5,15.71-5.14l.24-.07.14,0a90,90,0,0,0,12-3.2,87.86,87.86,0,0,0,11.4-4.85A71.69,71.69,0,0,0,992.84,1119a52.46,52.46,0,0,0,7.26-9.88,34.75,34.75,0,0,0,4.12-11.27,19,19,0,0,0-1.31-11.33,15.16,15.16,0,0,0-3.35-4.57c-.35-.34-.7-.61-1-.91l-.64-.48-.33-.24-.27-.18c-.85-.59-1.74-1.13-2.63-1.65a35,35,0,0,0-11.49-4.26,36,36,0,0,0-12.29,0,51,51,0,0,0-12,3.69,89.71,89.71,0,0,0-11.21,6c-3.61,2.26-7.13,4.71-10.62,7.23l-10.45,7.68a76.69,76.69,0,0,1-11.2,7,20.09,20.09,0,0,1-6.72,2,10.46,10.46,0,0,1-3.79-.34,9.54,9.54,0,0,1-3.41-1.83l-.07-.06-.07-.06a59.36,59.36,0,0,1-4.26-5,53.84,53.84,0,0,1-3.58-5.49,57,57,0,0,1-5-12.06,88.93,88.93,0,0,1-3.18-25.66,168.4,168.4,0,0,1,2.35-25.6c1.38-8.44,3.21-16.78,5.3-25s4.5-16.41,7-24.52,5.29-16.11,8-24.11,5.72-15.91,8.61-23.84l8.69-23.72c2.87-7.9,5.65-15.82,8.24-23.78,1.29-4,2.53-8,3.7-12s2.31-8,3.32-12A154.71,154.71,0,0,0,945,838.55a82.32,82.32,0,0,0,.18-12,44.48,44.48,0,0,0-2.2-11.47,27.91,27.91,0,0,0-5.66-9.73,25.7,25.7,0,0,0-2-1.95c-.28-.29-.77-.65-1.15-1l-.31-.25-.08-.06h0l-.13-.1-.54-.39a16.5,16.5,0,0,0-4.81-2.33,25.38,25.38,0,0,0-11.28-.42,52.87,52.87,0,0,0-11.54,3.47A107.9,107.9,0,0,0,884,814.77c-3.38,2.45-6.67,5.06-9.87,7.77S868,827.94,865,830.79Z" transform="translate(-462.5 -593)"/>
    </g>
  </g>
</svg>
