<?xml version="1.0" encoding="utf-8"?>
<!-- Generator: Adobe Illustrator 25.0.1, SVG Export Plug-In . SVG Version: 6.00 Build 0)  -->
<svg version="1.1" id="Capa_1" xmlns="http://www.w3.org/2000/svg" xmlns:xlink="http://www.w3.org/1999/xlink" x="0px" y="0px"
	 viewBox="0 0 512 512" style="enable-background:new 0 0 512 512;" xml:space="preserve">
<style type="text/css">
	.st0{fill:url(#SVGID_1_);}
	.st1{display:none;fill:#FBAEFF;}
	.st2{display:none;fill:#E38BEA;}
	.st3{fill:#FBAEFF;}
</style>
<radialGradient id="SVGID_1_" cx="255.5" cy="256" r="255.7501" gradientUnits="userSpaceOnUse">
	<stop  offset="0" style="stop-color:#20FFA1"/>
	<stop  offset="0.5109" style="stop-color:#3BC3B5"/>
	<stop  offset="1" style="stop-color:#548DC7"/>
</radialGradient>
<ellipse class="st0" cx="255.5" cy="256" rx="255.5" ry="256"/>
<path class="st1" d="M427,167.9v61.5c0,0-33.7,7-84.8-23.2c3.5,29,0,126.6,0,126.6S337.6,442,226.1,442
	c-102.9,0-111.5-96.4-111.5-96.4s-13.9-63.9,46.5-112.6c40.3-32.6,83.6-17.4,83.6-17.4l-1.2,62.7c0,0-34.8-11.6-59.2,20.9
	c-8.4,11.2-11.6,33.7-3.5,48.8c7.5,13.8,22.1,31.4,47.6,30.2c30.2-1.4,49.6-27.3,49.9-43c1.2-60.4,0-253.2,0-253.2h62.7
	c0,0,3.5,44.1,34.8,69.7C397.6,169.3,427,167.9,427,167.9z"/>
<path class="st1" d="M373.1,147.8c-13.8-13.1-72.1-24.6-72.1-24.6s-6.6,14.7-8.2,21.3c-19.7-8.2-63.9-6.6-78.7-1.6
	c-1.6-3.3-4.9-11.5-8.2-18c-8.2-1.6-52.4,11.5-72.1,21.3c-41,50.8-59,142.6-49.2,198.3c4.2,23.6,85.2,44.2,85.2,44.2l18-29.5
	l-26.2-16.4c0,0,3.3-7.8,4.9-6.6c26.2,19.7,86.9,21.3,86.9,21.3s60.6-1.6,85.2-21.3c2.6-2,9.8,8.2,9.8,8.2L319,357.6
	c0,0,9,29.5,18,29.5c16.4,0,75-21.1,85.2-42.6C437,313.4,405.8,179,373.1,147.8z M197.7,305.2c-17.2,0-31.1-16.1-31.1-36.1
	c0-19.9,13.9-36.1,31.1-36.1s31.1,16.1,31.1,36.1C228.9,289,214.9,305.2,197.7,305.2z M309.2,305.2c-17.2,0-31.1-16.1-31.1-36.1
	c0-19.9,13.9-36.1,31.1-36.1c17.2,0,31.1,16.1,31.1,36.1C340.3,289,326.4,305.2,309.2,305.2z"/>
<polygon class="st2" points="309,260 321,251 225,200 229,207 "/>
<path class="st1" d="M433.5,159.7c-4.4-10.7-2-19-36-29c-24.3-7.1-108.7-6.1-145-6c-34.8,0.1-105.3-2.3-139,5c-37,8-42,48-42,48
	s-5.4,60.7-5,81c0.5,24.9,1.8,74.4,11,97c13,32,50,30,50,30s92.2,4,123,4c36,0,110.3-3.1,144-5c35-2,45-40,46-50c2-20.2,4-81,4-81
	S444.5,186.7,433.5,159.7z M216.5,306.7v-105l101,52L216.5,306.7z"/>
<path class="st1" d="M411.3,130.3c0,0-31.5,13-42.6,16.7c-25.9-31.5-57.5-23.3-63-22.2c-37,7.4-45.2,30-48.2,37
	c-11.1,25.9-5.6,44.5-5.6,44.5s-49.2-8.3-66.2-16.3c-26.5-12.5-70.9-52.3-70.9-52.3s-13,18.5-11.1,37c3.7,37,31.5,51.9,31.5,51.9
	l-31.5-9.3c0,0,0,20.4,9.3,37c15.7,28.3,46.3,31.5,46.3,31.5s-24.1,0-31.5,0c0,11.1,10.9,26.3,20.4,33.3
	c9.1,6.7,14.8,11.1,42.6,14.8c-11.1,11.1-40.2,22.3-55.6,25.9c-10.8,2.6-44.5,1.9-44.5,1.9s38,20.8,51.9,24.1
	c38.9,9.3,77,7.5,101.9,1.9c40.8-9.3,74.7-38.1,94.5-57.4c15.1-14.8,34.3-54,40.8-74.1c4.8-15.1,11.1-42.6,7.4-63
	c13-11.1,33.3-37,33.3-37s-24.1,11.1-37,9.3C403.9,154.4,411.3,130.3,411.3,130.3z"/>
<rect x="83.8" y="108" class="st1" width="75.1" height="51.5"/>
<rect x="83.8" y="193.8" class="st1" width="72.9" height="210.2"/>
<path class="st1" d="M201.8,193.8V404h72.9V301c0,0,4.3-51.5,45-51.5c37.7,0,34.3,42.9,34.3,42.9V404H427V262.4
	c0,0-1.1-70.9-75.1-72.9c-77.2-2.1-83.7,45-83.7,45v-40.8H201.8z"/>
<path class="st3" d="M344.3,66v66.7c0,0-33.3,0-43.3,0c-4.7,0-12,8.8-13.3,13.3c-3.3,11.7-1.7,41.7-1.7,41.7h58.3
	c0,0,1.7,58.3-6.7,68.3c-15,0-51.7,0-51.7,0v185c0,0-0.3,5-1.7,5c-18.3,0-56.7,0-75,0c-1.5,0-5-1.8-5-3.3c0-45,0-186.7,0-186.7H166
	v-68.3h40c0,0-0.9-46.3,0-61.7c1.7-30,38.3-58.2,59.2-59.2C282.7,66,344.3,66,344.3,66z"/>
</svg>
