<?xml version="1.0" encoding="utf-8"?>
<!-- Generator: Adobe Illustrator 25.0.1, SVG Export Plug-In . SVG Version: 6.00 Build 0)  -->
<svg version="1.1" id="Capa_1" xmlns="http://www.w3.org/2000/svg" xmlns:xlink="http://www.w3.org/1999/xlink" x="0px" y="0px"
	 viewBox="0 0 512 512" style="enable-background:new 0 0 512 512;" xml:space="preserve">
<style type="text/css">
	.st0{fill:url(#SVGID_1_);}
	.st1{display:none;fill:#FBAEFF;}
	.st2{fill:#FBAEFF;}
</style>
<radialGradient id="SVGID_1_" cx="255.5" cy="256" r="255.7501" gradientUnits="userSpaceOnUse">
	<stop  offset="0" style="stop-color:#20FFA1"/>
	<stop  offset="0.5109" style="stop-color:#3BC3B5"/>
	<stop  offset="1" style="stop-color:#548DC7"/>
</radialGradient>
<ellipse class="st0" cx="255.5" cy="256" rx="255.5" ry="256"/>
<path class="st1" d="M427,167.9v61.5c0,0-33.7,7-84.8-23.2c3.5,29,0,126.6,0,126.6S337.6,442,226.1,442
	c-102.9,0-111.5-96.4-111.5-96.4s-13.9-63.9,46.5-112.6c40.3-32.6,83.6-17.4,83.6-17.4l-1.2,62.7c0,0-34.8-11.6-59.2,20.9
	c-8.4,11.2-11.6,33.7-3.5,48.8c7.5,13.8,22.1,31.4,47.6,30.2c30.2-1.4,49.6-27.3,49.9-43c1.2-60.4,0-253.2,0-253.2h62.7
	c0,0,3.5,44.1,34.8,69.7C397.6,169.3,427,167.9,427,167.9z"/>
<path class="st2" d="M373.1,147.8c-13.8-13.1-72.1-24.6-72.1-24.6s-6.6,14.7-8.2,21.3c-19.7-8.2-63.9-6.6-78.7-1.6
	c-1.6-3.3-4.9-11.5-8.2-18c-8.2-1.6-52.4,11.5-72.1,21.3c-41,50.8-59,142.6-49.2,198.3c4.2,23.6,85.2,44.2,85.2,44.2l18-29.5
	l-26.2-16.4c0,0,3.3-7.8,4.9-6.6c26.2,19.7,86.9,21.3,86.9,21.3s60.6-1.6,85.2-21.3c2.6-2,9.8,8.2,9.8,8.2L319,357.6
	c0,0,9,29.5,18,29.5c16.4,0,75-21.1,85.2-42.6C437,313.4,405.8,179,373.1,147.8z M197.7,305.2c-17.2,0-31.1-16.1-31.1-36.1
	c0-19.9,13.9-36.1,31.1-36.1s31.1,16.1,31.1,36.1C228.9,289,214.9,305.2,197.7,305.2z M309.2,305.2c-17.2,0-31.1-16.1-31.1-36.1
	c0-19.9,13.9-36.1,31.1-36.1c17.2,0,31.1,16.1,31.1,36.1C340.3,289,326.4,305.2,309.2,305.2z"/>
</svg>
